<?xml version="1.0" encoding="UTF-8"?>
<svg xmlns="http://www.w3.org/2000/svg" xmlns:xlink="http://www.w3.org/1999/xlink" width="375pt" height="374.999991pt" viewBox="0 0 375 374.999991" version="1.2">
<g id="surface1">
<path style=" stroke:none;fill-rule:nonzero;fill:rgb(100%,100%,100%);fill-opacity:1;" d="M 360.140625 114.265625 L 360.140625 110.96875 L 358.644531 110.96875 C 330.078125 47.269531 267.007812 2.328125 193.34375 0.046875 C 192.234375 -0.0195312 191.128906 -0.105469 190.011719 -0.105469 C 189.707031 -0.105469 189.394531 -0.0664062 189.089844 -0.0625 C 188.554688 -0.0664062 188.019531 -0.105469 187.472656 -0.105469 C 111.296875 -0.105469 45.628906 45.578125 16.304688 110.96875 L 14.8125 110.96875 L 14.8125 114.265625 C 5.246094 136.753906 -0.0585938 161.484375 -0.0585938 187.429688 C -0.0585938 290.835938 84.070312 374.960938 187.472656 374.960938 C 290.882812 374.960938 375.007812 290.828125 375.007812 187.429688 C 375.007812 161.484375 369.707031 136.753906 360.140625 114.265625 Z M 144.382812 18.808594 C 122.757812 37.976562 105.628906 70.539062 95.996094 110.96875 L 31.1875 110.96875 C 53.390625 65.765625 94.617188 31.53125 144.382812 18.808594 Z M 13.445312 187.429688 C 13.445312 165.230469 17.667969 144.007812 25.277344 124.476562 L 93.117188 124.476562 C 89.414062 144.054688 87.390625 165.175781 87.390625 187.339844 C 87.390625 207.929688 89.140625 227.628906 92.359375 246.023438 L 23.621094 246.023438 C 17.054688 227.699219 13.445312 207.980469 13.445312 187.429688 Z M 29.148438 259.527344 L 95.027344 259.527344 C 104.492188 302.0625 122.160156 336.324219 144.65625 356.113281 C 93.1875 343.039062 50.835938 306.964844 29.148438 259.527344 Z M 180.71875 360.316406 C 148.777344 353.832031 121.8125 314.257812 108.964844 259.523438 L 180.71875 259.523438 Z M 180.71875 246.023438 L 106.128906 246.023438 C 102.75 227.679688 100.894531 207.925781 100.894531 187.339844 C 100.894531 165.175781 103.050781 143.984375 106.941406 124.476562 L 180.71875 124.476562 Z M 180.71875 110.96875 L 109.964844 110.96875 C 123.183594 58.402344 149.589844 20.667969 180.71875 14.347656 Z M 343.757812 110.96875 L 284.019531 110.96875 C 274.71875 71.949219 258.429688 40.265625 237.867188 20.871094 C 284.347656 34.960938 322.648438 68 343.757812 110.96875 Z M 194.222656 13.609375 C 227.535156 16.65625 256.121094 55.566406 270.050781 110.96875 L 194.222656 110.96875 Z M 194.222656 124.476562 L 273.074219 124.476562 C 276.960938 143.984375 279.125 165.175781 279.125 187.339844 C 279.125 207.925781 277.269531 227.679688 273.894531 246.023438 L 194.222656 246.023438 Z M 194.222656 361.054688 L 194.222656 259.527344 L 271.054688 259.527344 C 257.53125 317.132812 228.363281 357.9375 194.222656 361.054688 Z M 237.570312 354.074219 C 259.007812 334.019531 275.835938 300.65625 284.988281 259.527344 L 345.796875 259.527344 C 325.140625 304.703125 285.738281 339.5625 237.570312 354.074219 Z M 287.660156 246.023438 C 290.871094 227.628906 292.628906 207.929688 292.628906 187.339844 C 292.628906 165.175781 290.601562 144.054688 286.898438 124.476562 L 349.667969 124.476562 C 357.273438 144.011719 361.503906 165.234375 361.503906 187.429688 C 361.503906 207.980469 357.898438 227.699219 351.320312 246.023438 Z M 287.660156 246.023438 "/>
</g>
</svg>
